<?xml version="1.0" encoding="utf-8"?>
<!-- Generator: Adobe Illustrator 21.0.0, SVG Export Plug-In . SVG Version: 6.00 Build 0)  -->
<svg version="1.1" id="Layer_1" xmlns="http://www.w3.org/2000/svg" xmlns:xlink="http://www.w3.org/1999/xlink" x="0px" y="0px"
	 viewBox="0 0 26 20.4" style="enable-background:new 0 0 26 20.4;" xml:space="preserve">
<style type="text/css">
	.st0{fill:#FFFFFF;}
</style>
<g>
	<path class="st0" d="M1708.2,4788.2c-10.8-10.8-25.1-16.7-40.3-16.7c-15.2,0-29.6,5.9-40.3,16.7c-10.8,10.8-16.7,25.1-16.7,40.3
		c0,9.4,2.3,18.8,6.8,27l-12.5,35.7l35.7-12.5c8.3,4.4,17.6,6.8,27,6.8c15.2,0,29.6-5.9,40.3-16.7c10.8-10.8,16.7-25.1,16.7-40.3
		C1724.9,4813.3,1719,4799,1708.2,4788.2z M1628,4854.6l-1.1-1.9c-4.3-7.3-6.6-15.6-6.6-24.2c0-26.2,21.4-47.6,47.6-47.6
		c26.2,0,47.6,21.4,47.6,47.6c0,26.2-21.4,47.6-47.6,47.6c-8.5,0-16.9-2.3-24.2-6.6l-1.9-1.1l-21.3,7.5L1628,4854.6z"/>
	<path class="st0" d="M1673.8,4858.5c3.7,1.6,7,2.4,9.9,2.4c3.2,0,5.8-1,7.7-2.9l6.4-6.4c1.3-1.3,2-3,2-4.8s-0.7-3.5-2-4.8l-8-8
		c-2.7-2.7-7-2.7-9.7,0l-3.1,3.1c-7.5-4.1-13.6-10.2-17.7-17.7l3.1-3.1c1.3-1.3,2-3,2-4.8s-0.7-3.5-2-4.8l-8-8c-1.3-1.3-3-2-4.8-2
		c-1.8,0-3.5,0.7-4.8,2l-6.4,6.4c-3.6,3.6-3.8,9.9-0.5,17.6c2.9,6.8,8.2,14.2,15,21C1659.5,4850.3,1667,4855.6,1673.8,4858.5z
		 M1643.2,4809.8l6.4-6.4l8,8l-6.5,6.5l1,2.2c5,10.6,13.6,19.1,24.1,24.1l2.2,1l6.5-6.5l8,8l-6.4,6.4c-1.4,1.4-5.4,1.1-10.1-1
		c-6-2.6-12.7-7.4-18.8-13.5c-6.1-6.1-10.9-12.8-13.5-18.8C1642.1,4815.2,1641.7,4811.2,1643.2,4809.8z"/>
</g>
<polygon points="13.9,0 0,10.2 13.9,20.4 13.9,15.1 26,15.1 26,5.4 13.9,5.4 "/>
</svg>
