<?xml version="1.0" encoding="utf-8"?>
<!-- Generator: Adobe Illustrator 21.0.0, SVG Export Plug-In . SVG Version: 6.00 Build 0)  -->
<svg version="1.1" id="Layer_1" xmlns="http://www.w3.org/2000/svg" xmlns:xlink="http://www.w3.org/1999/xlink" x="0px" y="0px"
	 viewBox="0 0 235 235" style="enable-background:new 0 0 235 235;" xml:space="preserve">
<style type="text/css">
	.st0{fill:none;stroke:#000000;stroke-width:0.8743;stroke-linecap:round;stroke-linejoin:round;stroke-miterlimit:10;}
	.st1{fill:#FFFFFF;}
</style>
<circle cx="117.5" cy="117.5" r="103"/>
<circle class="st0" cx="117.5" cy="117.5" r="115.9"/>
<g>
	<path class="st1" d="M91,143l-0.5-4.4h-0.2c-2,2.8-5.8,5.2-10.8,5.2c-7.1,0-10.8-5-10.8-10.1c0-8.5,7.6-13.2,21.2-13.1v-0.7
		c0-2.9-0.8-8.2-8-8.2c-3.3,0-6.7,1-9.2,2.6l-1.5-4.2c2.9-1.9,7.1-3.1,11.6-3.1c10.8,0,13.4,7.4,13.4,14.4v13.2c0,3.1,0.1,6,0.6,8.5
		H91z M90.1,125c-7-0.1-14.9,1.1-14.9,7.9c0,4.2,2.8,6.1,6.1,6.1c4.6,0,7.5-2.9,8.5-5.9c0.2-0.7,0.4-1.4,0.4-2V125z"/>
	<path class="st1" d="M105.8,136.4c1.9,1.2,5.3,2.6,8.5,2.6c4.7,0,6.8-2.3,6.8-5.2c0-3.1-1.8-4.7-6.6-6.5c-6.3-2.3-9.3-5.8-9.3-10
		c0-5.7,4.6-10.3,12.2-10.3c3.6,0,6.7,1,8.7,2.2l-1.6,4.7c-1.4-0.9-3.9-2-7.2-2c-3.8,0-5.9,2.2-5.9,4.8c0,2.9,2.1,4.2,6.7,6
		c6.1,2.3,9.3,5.4,9.3,10.6c0,6.2-4.8,10.6-13.2,10.6c-3.9,0-7.4-0.9-9.9-2.4L105.8,136.4z"/>
	<path class="st1" d="M166,91.2v42.6c0,3.1,0.1,6.7,0.3,9.1h-5.8l-0.3-6.1h-0.1c-2,3.9-6.3,6.9-12,6.9c-8.5,0-15.1-7.2-15.1-17.9
		c-0.1-11.7,7.2-19,15.8-19c5.4,0,9,2.5,10.6,5.4h0.1V91.2H166z M159.6,122.1c0-0.8-0.1-1.9-0.3-2.7c-0.9-4.1-4.4-7.4-9.3-7.4
		c-6.6,0-10.6,5.8-10.6,13.6c0,7.1,3.5,13,10.4,13c4.3,0,8.2-2.8,9.4-7.7c0.2-0.9,0.3-1.7,0.3-2.8V122.1z"/>
</g>
</svg>
