<?xml version="1.0" encoding="utf-8"?>
<!-- Generator: Adobe Illustrator 21.0.0, SVG Export Plug-In . SVG Version: 6.00 Build 0)  -->
<svg version="1.1" id="Layer_1" xmlns="http://www.w3.org/2000/svg" xmlns:xlink="http://www.w3.org/1999/xlink" x="0px" y="0px"
	 viewBox="0 0 115 115" style="enable-background:new 0 0 115 115;" xml:space="preserve">
<style type="text/css">
	.st0{fill:#FFFFFF;}
</style>
<g>
	<g>
		<path class="st0" d="M114.3,85.9c0,2.5-0.7,4.8-1.8,6.8L76.6,52.6l35.5-31c1.4,2.2,2.2,4.8,2.2,7.5V85.9z M57.5,59.9l49.3-43.2
			c-2-1.1-4.3-1.8-6.8-1.8H14.9c-2.5,0-4.7,0.7-6.8,1.8L57.5,59.9z M71.3,57.3l-11.4,10c-0.7,0.6-1.5,0.9-2.3,0.9
			c-0.8,0-1.7-0.3-2.3-0.9l-11.4-10L7.4,97.9c2.2,1.4,4.7,2.2,7.5,2.2h85.2c2.8,0,5.3-0.8,7.5-2.2L71.3,57.3z M2.9,21.6
			c-1.4,2.2-2.2,4.8-2.2,7.5v56.8c0,2.5,0.7,4.8,1.8,6.8l35.8-40.1L2.9,21.6z M2.9,21.6"/>
	</g>
</g>
</svg>
