<?xml version="1.0" encoding="utf-8"?>
<!-- Generator: Adobe Illustrator 21.0.0, SVG Export Plug-In . SVG Version: 6.00 Build 0)  -->
<svg version="1.1" id="Layer_1" xmlns="http://www.w3.org/2000/svg" xmlns:xlink="http://www.w3.org/1999/xlink" x="0px" y="0px"
	 viewBox="0 0 908.1 13.1" style="enable-background:new 0 0 908.1 13.1;" xml:space="preserve">
<style type="text/css">
	.st0{fill:#FF931D;}
</style>
<g>
	<g>
		<g>
			<g>
				<g>
					<path class="st0" d="M8.5,9.3c-1.3,0-0.8,0.4-1,0.5C9.7,9.7,8.5,9.2,8.5,9.3z"/>
					<polygon class="st0" points="30.3,8.2 29.9,8.4 33.1,7.9 					"/>
					<path class="st0" d="M50.6,8.2c-1.9-0.8-7.4,0.1-11-0.2L39,7.9l-1.6,0.6C41.8,8.4,47.5,8,50.6,8.2z"/>
					<path class="st0" d="M61.5,10c-0.7-0.3,2.3-0.3-2.5-0.1c0.2,0,0.3,0.1,0.5,0.1C59.9,9.9,60.5,9.9,61.5,10z"/>
					<path class="st0" d="M59.4,9.9C57.3,10,60.8,10.2,59.4,9.9L59.4,9.9z"/>
					<path class="st0" d="M69.3,9.8L66.5,10c0.6,0.2,3.1,0.2,2.2,0.4C71.6,10.3,71,10.1,69.3,9.8z"/>
					<path class="st0" d="M72,9.2l-1.5,0.1C70.8,9.4,71.2,9.4,72,9.2z"/>
					<path class="st0" d="M67.4,9.5l3.1-0.3c-0.4-0.1-0.5-0.4-1.4,0.1C69.4,9.1,68.7,9.4,67.4,9.5z"/>
					<path class="st0" d="M65.7,9.4c-1.6-0.2-3.6-0.3-0.8-0.6C59.5,9,60.3,9.5,65.7,9.4z"/>
					<path class="st0" d="M51.7,7.4l-2.1-0.2l-1.8,0.3C48.6,7.3,51.8,7.6,51.7,7.4z"/>
					<path class="st0" d="M86.9,10.2c0.2-0.2-0.9-0.5-1.2-0.7l-2.1,0.2C84.7,9.8,86.8,9.9,86.9,10.2z"/>
					<path class="st0" d="M85.7,9.5l3.1-0.3C86.1,9.2,85.6,9.3,85.7,9.5z"/>
					<polygon class="st0" points="72.5,8.3 67.4,8.9 73.5,8.3 					"/>
					<polygon class="st0" points="98.8,10.2 97.1,10.6 100.2,10 					"/>
					<path class="st0" d="M106.7,10.1c-1.3,0.3,1.8,0.6,0.4,0.8c2.1-0.1,4-0.3,5.6-0.6C111,10.4,109.1,10.4,106.7,10.1z"/>
					<path class="st0" d="M115.5,9.9c-0.9,0.1-1.8,0.2-2.8,0.4C113.7,10.2,114.6,10.1,115.5,9.9z"/>
					<path class="st0" d="M94.2,9.3c0.2,0.1,0.7,0.4,2.5,0.5l-1.2-0.5C95,9.3,94.6,9.3,94.2,9.3z"/>
					<path class="st0" d="M95.4,9.3L95.4,9.3c1.4,0,2.3,0,2.7,0C97.7,9.3,96.9,9.3,95.4,9.3z"/>
					<path class="st0" d="M93.9,9.3c0.1,0,0.2,0,0.3,0C94.1,9.2,94,9.2,93.9,9.3z"/>
					<path class="st0" d="M80.7,8.7c1.8-0.3,5.7-0.6,2-1C81.3,8.1,83.4,8.3,80.7,8.7z"/>
					<path class="st0" d="M92.4,8.7L89,8.6c0.1,0.1,0.7,0.3-0.2,0.4L92.4,8.7z"/>
					<polygon class="st0" points="94,8.5 92.4,8.7 93.6,8.7 					"/>
					<path class="st0" d="M109.9,9.5c1.4-0.2,3-0.2,4.8-0.3c-1.9-0.1-3.9-0.1-5.7-0.1C108.7,9.2,107.8,9.5,109.9,9.5z"/>
					<path class="st0" d="M102.8,9.3c0.1,0,0.2,0,0.3,0C102.9,9.3,102.8,9.3,102.8,9.3z"/>
					<path class="st0" d="M132.1,9.2c-0.1,0-0.2-0.1-0.3-0.1c0,0,0,0.1-0.1,0.1L132.1,9.2z"/>
					<path class="st0" d="M108.6,9c-1.4-0.1-2.3,0-3.1,0.2c1.1,0,2.2-0.1,3.4-0.1C109,9,109.1,9,108.6,9z"/>
					<path class="st0" d="M120.4,9.7c-0.7-0.1-1.6-0.2-2.5-0.3C118.7,9.6,120.1,9.8,120.4,9.7z"/>
					<path class="st0" d="M103.6,9.4c-0.1,0-0.1,0-0.2,0C103.9,9.6,103.8,9.5,103.6,9.4z"/>
					<path class="st0" d="M103.6,9.4c0.7-0.1,1.3-0.2,1.9-0.3c-0.9,0-1.7,0.1-2.4,0.2C103.3,9.3,103.5,9.4,103.6,9.4z"/>
					<path class="st0" d="M137.3,6.1c-0.3,0.4-4,0.9-7.2,0.4c-3.2,0.3-1.1,1.8,1.7,2.6c0.1-0.2,0.1-0.4,3.4-0.6
						c-1.1-0.2-7.3-0.6-4.5-1c4.3-0.2,3.6,0.2,5.7,0.4c-1.8-0.6,5.5-0.8,4.6-1.6l-3.8,0.3C137,6.4,138.4,6.2,137.3,6.1z"/>
					<path class="st0" d="M125.5,9.1l-1.3,0.1c1.5,0.1,2.6,0.3,4.7,0.6c2.2-0.2,2.7-0.4,2.9-0.5l-6.6-0.1L125.5,9.1z"/>
					<path class="st0" d="M118.1,9.1c1.1-0.5,4.3-0.7,2.3-1.2c-4,0-2.8,0.4-5.1,0.6C121.7,8.4,113.5,8.8,118.1,9.1
						c-1.3,0-2.4,0.1-3.5,0.1c1.1,0.1,2.3,0.1,3.3,0.2c-0.1,0-0.1,0-0.1,0l0,0c0,0,0,0,0,0c-0.3-0.1-0.4-0.1-0.1-0.1
						c0,0,0.1,0,0.1,0C117.9,9.3,118,9.2,118.1,9.1c1.8,0.1,0.3,0.1-0.3,0.2c0,0-0.1,0-0.1,0.1c0,0,0,0,0,0l6.4-0.3
						C122.8,9.1,121.1,9.1,118.1,9.1z"/>
					<path class="st0" d="M86,6.7c0.2,0,0.2,0.1,0.2,0.1C86.7,6.7,86.8,6.7,86,6.7z"/>
					<path class="st0" d="M88.7,7c-0.5,0.1-0.9,0.3-2.4,0.2c-1.3-0.1,0-0.2-0.1-0.4c-0.9,0.1-3.2,0.4-0.3,0.6l0.5-0.1
						c2.6,0.2,5.9,0.8,5.4,0.8C91.1,7.7,90.4,7.4,88.7,7z"/>
					<path class="st0" d="M103.6,7.9l5.3-0.2l-2.7-0.4l0.1,0.3C103.3,7.4,104,7.7,103.6,7.9z"/>
					<polygon class="st0" points="132.7,9.5 132,10 135,9.2 					"/>
					<polygon class="st0" points="139.6,9.4 139.3,9.8 141.2,9.6 					"/>
					<path class="st0" d="M530,3.8l1.6-0.1C530.8,3.8,530.4,3.8,530,3.8z"/>
					<path class="st0" d="M518.7,3.8L518.4,4C518.9,3.9,519.2,3.8,518.7,3.8z"/>
					<path class="st0" d="M309.5,9.3c2.3,0.4,4.8,1.1,4.5,0.6l-0.7-0.5C311.8,9.5,310.5,9.5,309.5,9.3z"/>
					<path class="st0" d="M425.9,6.4c-0.2,0-0.4-0.1-0.7-0.1c-0.6,0.2-1.1,0.3-1.5,0.5C424.3,6.6,425.1,6.5,425.9,6.4z"/>
					<path class="st0" d="M427.5,4.4l3,0.3C429.8,4.6,428.9,4.5,427.5,4.4z"/>
					<path class="st0" d="M591.9,3.3l1.8-0.5C590.9,2.8,592.1,3.1,591.9,3.3z"/>
					<path class="st0" d="M210.4,9.2c2,0.2,3.5,0.3,4.9,0.3C213,9.2,211.1,8.8,210.4,9.2z"/>
					<path class="st0" d="M525.6,9.1c1-0.1,1.4-0.2,1.3-0.3C525.9,8.8,525.4,8.9,525.6,9.1z"/>
					<path class="st0" d="M221,9.5c-0.3,0-0.7-0.1-1-0.1c-1.4,0.1-2.9,0.1-4.6,0.1C217.1,9.7,219.1,9.9,221,9.5z"/>
					<path class="st0" d="M816.2,3.7c0.2,0,0.4,0,0.5,0.1C816.8,3.7,816.6,3.7,816.2,3.7z"/>
					<path class="st0" d="M881.6,8.7c-0.6,0-1.7,0-2.7,0C879.4,8.8,880.2,8.7,881.6,8.7z"/>
					<path class="st0" d="M167.4,9.6C166,9.6,167.2,9.7,167.4,9.6L167.4,9.6z"/>
					<path class="st0" d="M160.3,7.7c0.3-0.1,0.5-0.1,0.6-0.2C160.7,7.6,160.5,7.6,160.3,7.7z"/>
					<path class="st0" d="M235.6,6.5c0,0,0.1,0,0.1,0C235.3,6.4,235.4,6.4,235.6,6.5z"/>
					<path class="st0" d="M165.2,9.4c0.6,0.1,1.2,0.1,1.9,0.1C166.8,9.5,166.2,9.4,165.2,9.4z"/>
					<path class="st0" d="M165.5,9.6c-0.5,0-0.9,0-1.3,0C164,9.7,164.2,9.7,165.5,9.6z"/>
					<path class="st0" d="M169.5,9.6c-0.8,0-1.6,0-2.4-0.1c0.3,0,0.4,0.1,0.3,0.1C167.8,9.6,168.5,9.6,169.5,9.6z"/>
					<path class="st0" d="M696,5c0.1,0,0.2,0,0.3,0C697.8,4.9,697.2,4.9,696,5z"/>
					<path class="st0" d="M347.7,4.3c-0.1,0-0.1,0-0.2,0C347.6,4.3,347.7,4.3,347.7,4.3L347.7,4.3z"/>
					<path class="st0" d="M353,3.9c-2.2,0.6-3.5,0.5-5.2,0.4l1.7,1.4L353,3.9z"/>
					<path class="st0" d="M557.1,3.7l-3.7-0.4c4.5-0.7,7.7-0.5,4.2-1.1c-0.5,1.5-14.4,0.2-14.9,1.7l-2.4-0.3c0.7,0,0.8-0.1,1.5-0.1
						c-4.7-0.7-3.5,1.1-9.6,0.9c-2.1-0.1-3.6-0.3-2.2-0.5l-4.7,0.4c-1.4,0-1-0.3,0.3-0.3l-7.2,0.1l0.1,0c-1,0.2-3.4,0.6-4.5,0.8
						c-1.8-0.2,0.9-0.2,0.5-0.4l-4,0.4c-1.6-0.4,1.7-0.8,4.5-0.7c-3.7-1.5-3.3,0.4-11.4-0.5l3.8-0.2c-2.4-0.9-5.4-0.6-9.7-1.1
						c1,0.3,8.6,1.4,4.2,1.8c-1.2-0.1-2.8-0.2-5.2,0.1c0-0.5-2.3-0.4-5.2-0.4l0.2-0.7c-3.1,0.2-2.9,0.6-4.7,0.9
						c-3.5-0.1-4.2-0.6-5-1.1c-5.5-0.1,3.8,0.9-2.7,1c-4.6-0.3-7.8,0-13.3,0.5c-3.2-0.2,0.6-0.4-0.6-0.6l-2.9,0.6
						c-0.7,0-0.5-0.2-0.4-0.3c-2.4,0.2-0.2,0.7-4,0.9c-1,0.8-7.8-1.2-12.4-0.3c-1.2-0.2,0.6-0.4,0.2-0.7c-6.4,0.6-5.5,0.4-10.8,1.2
						l-4.5-0.5c3.3,0.5-0.9,1.2-4.6,1.7c1.2,0.3,2.2,0.5,2.8,0.6l-5.9,0.4c-0.7-0.1-0.1-0.4,0.8-0.7c-0.4,0.1-0.8,0.1-1.1,0.2
						c-2.1-0.3-1-0.7,0.5-1.1c0.7,0.1,1.4,0.3,2.1,0.4c1.5-0.4,2.8-0.9,2.5-1.3c-0.4,0.1-1.1,0.2-1.9,0.2c0.4-0.1,0.6-0.2,0.4-0.3
						c-0.2-0.1-0.8,0.1-1.8,0.3l-1.3-0.8l-0.3,0.3l-7.7-0.5c-5.5,0.8-10.3,2-19.1,2.3c2.2-0.6,0.5-1,0.6-1.7
						c2.4,0.7,6.8-0.3,11.3-0.2c-2.4-0.1-1.8-0.4-1.2-0.5l-8.1,0.7c0.2-0.6-1.7-0.4-3.8-0.7c1.6,1.1-6,0.8-9.3,1.1
						c-0.2-0.4,0.6-0.8,4.6-0.7c-4.4-0.9-5.7,1.3-10.1,0.6c1,0,1.5,0,1.9-0.1c-2.3,0.3-7.9,0.1-6.6-0.3l1,0c-6.5-0.1-19.8,0-20.8,1
						c-0.1-0.1,0.9-1.2,1.2-1.4L345,7.5c1-0.8-2.9-2.8,2.5-3.3c-1.6-0.1-3.5-0.3-6.7,0c1.1,0.1,2.6,1.2,1.2,1.3
						c-4-0.9-2.8-0.5-7.7-1.3c1.6,0.2-0.2,1.5-2.7,1.4c0.4-0.2-0.2-1.3,0.7-1.4l-6.2,1.3c1.6-0.2,0.3-1.1-1.1-1.4
						c0.6,0.2-5.4,0-7.1,0.1l2.6,0.3c-7-0.2-7,1.8-14,1.7c0.8-0.3,2.1-1.6-1.5-1.8c-1.6,0.7-7.2,3.1-13.4,3.6l-1.2-0.4l-4.7,0.4
						c3-1,11.2-3,15.8-3.8c-2.6-0.3-0.7-0.4-4.7-0.4c-1.4-0.3,2.2-0.5,3.3-0.6L291,3.2c0.4,0.8-7,0.8-6.7,1.4l10-0.8
						c0.4,0.8-5.8,2.2-12.3,2c-1.7-0.3,1.2-1.4,1.1-1.6c-0.8,0.3-6.2,0.5-6.8,0.3l2.8-0.4c-3.6-0.3-5.9,1-10.3,0.3
						c-1.5,0-4.5-1-4.8-0.5c2.5,0.9,2.9,3.6,1.3,4.2c-0.5-0.1-7.9-0.8-9.6-1.3c-2.5-0.7,3.7-1.6,1.6-2.2c-0.1,0.2-1.5,0.5-2,0.5
						c-1.6-0.2,0.7-0.6-2.8-0.5c-0.6,0.8-7-0.1-1.6,0.7c-3.4,0.2-3.6-0.2-7.5-0.1c1.3,0.5-3.5,1.7-6.9,1.9c0.2-0.2-0.6-0.5-0.9-0.6
						c-6.9-0.1-10.6-0.4-17-0.4c-0.6-0.2-3.7-0.4-2.4-0.7c-0.9,0.1-1.8,0.4-3.8,0.4c-3.8-0.7,4.4-0.1,1.5-0.9
						c-0.2,0.4-5.1,0.6-7.9,0.9c0.9,0.7,6.5,0.1,9.3-0.1c0,1-4.9,2-11.6,2.4c-5.3,0.2-2.3-0.6-3.2-0.5c-10-0.2-8.5,1.7-16.8,1
						c-3.3-0.6-0.1-1.2-0.9-1.6c4.3-0.2,6.7,0.4,9.6,0.4l-3.6-0.3c1.4-0.2,4.3-0.4,5.9-0.2c-2.8-0.5-16.9-0.1-24.6-0.6
						c-1.4,0.2-3.7,0.4-2.6,0.7l2.4-0.1c2.2,0.5-4.6,0.7-1.5,0.9c-3.3,0.3-7,0.9-11.6,0.6l-0.9-0.7c0.1,0.2,3,0.4,4.3,0.2
						c-1.9,0.3-7.1-0.9-9.2,0l3.2,0.5c-3.3,0.3-7.4,1.1-11.5,0.9c1.9,0.7,0.9-0.1,3.9,0.7c-2.5-1,10.5,0,6.4-1
						c3,0.9,5.2,0.4,9.1,1.2c-0.1-0.2-1.4-0.4,2.1-0.3c0.2-0.1,0.5-0.2,0.8-0.2c0.1,0,0.1,0,0.2,0c-0.1,0-0.1,0-0.2,0
						c0.1,0,0.2,0-0.1,0c-0.8-0.1-1.5-0.2-1.7-0.3c1.7-0.5,7.2-0.5,9-0.8c2,0.1-0.9,0.3,0.3,0.5l2.8-0.4c0.3,0.5,5.4,0.8,0.6,1.1
						l4.3,0c2.5,0.3,6,0.4,8.2,0.2c2,0.1,5.1-0.6,3.4-0.2l6.8-0.3l0.1,0.1c6.7,0.1,13.8-0.8,21.4,0.1c2.3-0.1,4.6-0.3,8.3-0.1
						l0.7,0.4c2.9-0.2,8.7,0.4,9.9,0c3.1,1.2,14,0.3,19.1,0.5l0.2-0.6c3.5,0,6.9-0.1,11.2-0.4l-0.3-0.5c3.7-0.4,9.6,0.4,15.5,0.3
						c-0.4,0.2-1.9,0.1-3,0c7.1,1.1,14.9-0.8,21.3,0c1.6-0.2,2.8-0.1,3.9,0c-0.1,0-0.3,0-0.4,0c0.2,0,0.4,0,0.7,0
						c0.7,0.1,1.4,0.2,2.2,0.3c-0.7-0.1-1.3-0.2-1.9-0.3c1.2,0,3.1-0.1,4.9-0.2l0.8,0.5c0.1,0,0.3,0,0.4,0c1.8,0.2,1.4-0.3,0.5-0.7
						c0.9-0.1,1.8-0.2,2.4-0.3c1.5,0.9,4.8-0.3,6.8,0.6c1.2-0.5,9.2-0.3,10.2-1.3c0.1,0.1,0.6,0.2-0.4,0.2c2,0.1,4.1,0.2,5.9-0.1
						l0.9,0.7l4.5-0.9c2.7,0.4,3.8,0.7,1.1,1.2c6.5-0.8,5.3-0.3,10.8-1.1l-0.3,0.4c2,0,5.1-0.6,6.3-0.2c4.4,0.9,21.9,0.1,33.2,0.9
						c-2.2-1.3,5.3,0.6,5.7-0.4c0.7,0.3,2.2,0.5,0.4,0.8c5.8-0.3,8.7,0.5,12.7-0.4c0.7,0.3-1.2,0.5-0.6,0.6c0.5-0.1,1.8-0.3,2.4-0.1
						c0.6,0.2-0.8,0.3-1.8,0.4c5.9-0.1,6.5-1,6.9-1.9c3,0.4,4.5,0.4,6.7-0.2c1,0.3,2.8,0.6-0.9,0.7c2.1,0,12.6,0.4,12.8-0.3
						c0.6,0.2,2.9,0.1,3.4,0c4.6,0,5,0.1,9.6,0L452,7.9c1.8-0.9,3.8-0.2,7.5-0.3l-0.1,0.1c8.4,0.6,3.6-0.3,11.9,0.4l-0.5-0.5
						c0.8-1.2,7.4,0.7,12.2,0.2l-1.7-0.3c2.6-0.4,7.4,1.6,10,1.7c0.6,0.1-0.9,0.2-1.7,0.2c6.9,0.7,0.9-0.7,6.1-0.9
						c1,0.4-1.2,1,2.2,1c1.7,0.3,10.1-1.2,14.8-0.5c-1-0.3-2.1-0.6,0.3-0.8c3.7-0.1,9.9,1.1,13.3,0.2c0.5,0.1,0.6,0.2,0.7,0.2
						c2.8-0.2,9.1-0.4,10.8-0.9c2.6,1.9,17.5-0.9,17.4,0.8l8.6-0.1l-0.2,0.2c5.5,0.1,7.5-0.3,9.4-0.7c1.3,0.1,0.3,0.3,0.2,0.4
						c8.1,0.3,8.9,0.3,15.6-0.6l0.7,0.6c1.8-0.3,11.7,0.9,19.6,0.2c-0.1,0.1-0.2,0.2-0.9,0.3c8.9-0.7,21.3,1.6,24.6-0.5l5.9-0.5
						c-7.6-0.2,1.1-0.9-2-1.2c3-0.1,7.7,0.6,4.1,0.7l-0.6-0.1c-1.3,1.1,9.4,0.4,9.2,1.1c15-0.1,29.5,0.5,43.5,0.6l-1.6-0.8l4.9,0
						c1.3,0.2,1.7,0.6-1.8,0.6c1.8,0.5,5.8-0.4,5.9-0.6c6.8,0.3-2.7,1-0.6,1l2.8-0.1L702,9c2.3-0.3,2.5-0.7,6.7-0.7
						c2.7,0.2,1.4,0.5,2.4,0.5c0,0.1,0.3,0.1,1.6,0l6.2,0.1l-2.5-0.7c2.7-0.3,5.8,0,2.9-0.7c4.2,1.1,23,0.4,25.5,0.8
						c3.8-0.5,7.6-0.5,12.3-0.4c-1.2-0.1-1.9-0.9,2.2-0.8c-1.5,1.5,7.4,0.7,10.6,1.7c-2.9-0.7,11.5-0.2,6.9-1.2
						c3.4,0.1,0.2,0.6,2.8,0.9c8-0.6,17.6,0.4,27.5,0.2c0.2-0.2-1.5-0.5,0.6-0.8l5.2,1c2-0.1,1.8-1.1,5.4-0.5
						c-0.5-0.2-1.3-0.4,0.1-0.5c19.4,1,39.6-0.8,59.3,1c-2.7-0.4-0.9-0.4,1.1-0.4c-1.3-0.1,0-0.5-0.2-0.8l8.2,0.7
						c1.5-0.7,8.8-0.1,9.7-0.8L894,8.1c3.5-0.8-4.9-1.9-4.3-3c-3.9,1-10.2-1.4-16.6,0c-1.4-0.2,1.2-0.3,0.4-0.6
						c-1.6,0.5-3.6,0.6-7.2,0.4l0.4-0.1c-10.2,0.1-14.5-0.3-25.9-0.6l0.8,0.5c-2.5-0.1-3-0.2-4.1-0.4c-2.8,0.8,6.9,0,4.3,0.9
						c-3.3-1.1-17.3,0-19.5-1.3c-3.8,0,1.1,0.6-2.7,0.6l-1-0.3l-1,0.4c-2.5-0.1-3.7-0.5-3.8-0.8c0.6,0,1.7-0.1,2.4-0.1
						c-3.2-0.4-9,0.1-10.1,0l3.6,0.2c-10.3,0.3-22.9-0.1-32.8,0.6l0.8,0.3c-7.6,0.5-6.1-0.3-14.4-0.1l0.3-0.1
						c-1.7,0.3-3.9,0.4-6.2,0.4c2.1-0.3-4-0.6-1.2-0.9c-8.2,0.5-4.1,0.4-9.5,1.3L745.3,5c-1.9,0.4-2,0.6-6.2,0.7
						c3.4-0.4-2.7-0.6,1.2-1.1c-8.7-0.9-13,0.9-17-0.4c-4,1.2,7.6,0.6,5.3,0.9c1.9,0.4-3.3,0.9-6.1,0.8c-2.8,0-4.7-1.5-11.8-1.5
						c0.7,0,0.7-0.1,1.4-0.1c-2.6-0.3-5.2,0.4-8.4-0.1c-1.8,0.7-4.2,0-4.7,0.9l6.4-0.2c-3.7,0.2-7.1,1.3-13.1,0.8
						c0.5-0.2,2.3-0.4,3.5-0.6c-1.8-0.3-3.4,0.2-5.2-0.1c0.5-0.9,7.8-0.2,11.7-0.9c-1.9-0.4-7.4,0.6-5.4-0.3
						c-2.8,1.2-6.9-0.2-11.7,0.8l0.3-0.5c-0.8,0.1-2.3,0.3-3.7,0.3l2.5-0.7c-3.9,0.6-7.4-0.5-11.1-0.2c7.7,0,1.7,0.6,5,1
						c-9.5,0.7-5.5-1.4-16.2-1.1c1.4-0.1,5.4,0.3,3.2,0.6c-2-0.1-4.7-0.3-6-0.6c-7.1,0.1,1.1,0.6-1.9,0.9c-2.4-0.7-3.5,0.3-6.6,0.5
						l0-0.5c-8.1-0.4-2.1,1.1-9.4,0.7l3.1-0.8l-3.8,0.2l0.8-0.6c-4.1,0.5-5.4,0.3-9.4,0.2c0.9,0.4-0.5,1-4.1,1
						c-2.4-0.3,1.4-0.5-3.7-0.4c1.1-0.3,2.4-0.8,4.6-0.3c0.2-0.2,1.1-0.3,1.4-0.5c-2.6-0.4-6.6-0.1-8.4-0.1c0.7,0,1.5,0,2,0.1
						l-7.3,0.8c-1.2-0.2-0.2-0.4,0.7-0.5c-1.5,0.1-2.5,0.3-4.7,0.4c0.6-0.4,0.4-0.9,3.5-1.1l-7,0.5c-0.5-0.2-3.6-0.5-2.7-0.7
						c-3.9-0.3-9.5,0.9-14.7,0.5c-0.3,0.1-0.8,0.2-1.9,0.2c-4.8-0.1-9.1-0.6-14.8,0l-3.2-0.8c-4.5,0.2,4.4,1-3.1,1.3
						c-5.3,0.3-2-0.7-3.8-0.9c-2.6,0.4-7.2,1.2-12.1,0.6C554.4,3.6,555.6,3.8,557.1,3.7z M501.8,4.1c1.1-0.1,3.2-0.5,4-0.1
						C504.6,4.5,503.7,4.2,501.8,4.1z M417.7,5.4c0.8-0.2,2-0.1,3.4,0.1C420.2,5.5,419,5.5,417.7,5.4z M183.5,9.2c0,0,0.1,0,0.1,0
						C186,9.4,185.2,9.3,183.5,9.2z M178.5,8.9c-0.5,0.1-0.5,0.2-0.3,0.2c0.3-0.1,1.5-0.1,2.7-0.1C180.7,8.9,180,8.8,178.5,8.9z
						 M711.7,8.7l-1-0.1C712.9,8.4,712.3,8.6,711.7,8.7z"/>
					<path class="st0" d="M427.3,4.6c0.3,0.1,0.4,0.2,0.5,0.3C428.2,4.8,428.2,4.7,427.3,4.6z"/>
					<path class="st0" d="M591.5,3.4c0.1,0,0.1,0,0.2,0c0.1,0,0.1-0.1,0.2-0.1L591.5,3.4z"/>
					<path class="st0" d="M255.4,4.3c1,0.1,1.6,0.2,2,0.3C257.5,4.5,257,4.3,255.4,4.3z"/>
					<path class="st0" d="M152.2,9.9l3.2-0.1c-1.5,0-2.1-0.1-2.9-0.2C152.6,9.7,153.2,9.8,152.2,9.9z"/>
					<path class="st0" d="M124.6,6.5c-0.5,0.1-1,0-1.4,0.1l0.1,0.3C125.3,6.8,126.7,6.6,124.6,6.5z"/>
					<path class="st0" d="M149.3,8c-0.3-0.5-2.2-0.3-4.5-0.2c0.1,0,0.3,0,0.4,0C144.5,8.5,146.9,8.3,149.3,8z"/>
					<path class="st0" d="M144.3,7.8c-0.7,0-1.4,0-2.1,0C142,8.1,143.1,7.9,144.3,7.8z"/>
					<path class="st0" d="M172.2,9.2c-1.1-0.1-0.7,0.6-1.3,0.4C169.8,10.2,178,8.9,172.2,9.2z"/>
					<polygon class="st0" points="147.5,6.5 148.3,7.1 149.5,6.6 					"/>
					<path class="st0" d="M165.1,6.9l-3.6-0.2c0.1,0.1-0.4,0.2-1,0.2C162.8,7,165.2,7.1,165.1,6.9z"/>
					<path class="st0" d="M160.6,7c-1.1,0-2.2,0-2.9,0.1C158.3,7.1,159.6,7.1,160.6,7z"/>
					<polygon class="st0" points="152.3,6.4 153.4,6.5 155.9,6.5 					"/>
					<path class="st0" d="M203.3,7.1l3.9-0.2c0.4-0.2-0.7-0.3-2.1-0.2C204.2,6.8,202.7,6.9,203.3,7.1z"/>
					<path class="st0" d="M191.6,5.5c1.1,0.1,1.1,0.2,1.7,0.4l0.1-0.7L191.6,5.5z"/>
					<path class="st0" d="M202.9,5.3c0.4-0.2,5.6-0.6,0.7-0.5C203.2,5,199.3,5.2,202.9,5.3z"/>
					<polygon class="st0" points="261.5,6.2 260.5,6.2 260.6,7.4 					"/>
					<path class="st0" d="M313,3.5c-4.6-0.3-1.1,0.7-5.3,0.4c-1.1,0.3,3.4,0.3,2.3,0.5C312.9,4.1,314.3,4.2,313,3.5z"/>
					<path class="st0" d="M310.1,4.4c-0.4,0-0.9,0.1-1.4,0.2C309.5,4.5,309.8,4.4,310.1,4.4z"/>
					<polygon class="st0" points="892.4,9.3 895.4,9.5 893.5,9.2 					"/>
					<path class="st0" d="M898.1,8.4l0.7,0.7l1.8-0.7C899.9,8.5,898.6,8.6,898.1,8.4z"/>
					<path class="st0" d="M493.6,2.6l-0.2,0.2c0.5,0.2,1.2,0.2,2.5,0.2L493.6,2.6z"/>
					<polygon class="st0" points="533.8,3.1 533.1,3.1 534.4,3.8 					"/>
					<path class="st0" d="M567.4,2.3c-1.4,0-3,0.1-4.4,0.1C566.1,2.2,567.8,3.1,567.4,2.3z"/>
				</g>
			</g>
		</g>
	</g>
</g>
</svg>
