<?xml version="1.0" encoding="utf-8"?>
<!-- Generator: Adobe Illustrator 21.0.0, SVG Export Plug-In . SVG Version: 6.00 Build 0)  -->
<svg version="1.1" id="Layer_1" xmlns="http://www.w3.org/2000/svg" xmlns:xlink="http://www.w3.org/1999/xlink" x="0px" y="0px"
	 viewBox="0 0 115 115" style="enable-background:new 0 0 115 115;" xml:space="preserve">
<style type="text/css">
	.st0{fill:#FFFFFF;}
</style>
<g>
	<path class="st0" d="M97.5,17.5C87.5,7.5,74.3,2,60.2,2S32.8,7.6,22.8,17.5S7.4,40.8,7.4,54.9c0,8.7,2.2,17.4,6.3,25l-11.6,33
		l33.1-11.6c7.6,4.1,16.3,6.3,25,6.3c14.1,0,27.3-5.5,37.3-15.5S113,68.9,113,54.8S107.4,27.5,97.5,17.5z M23.2,79l-1-1.7
		c-4-6.7-6.1-14.5-6.1-22.4c0-24.3,19.8-44,44-44c24.3,0,44,19.8,44,44c0,24.3-19.8,44-44,44c-7.9,0-15.6-2.1-22.4-6.1l-1.7-1
		l-19.7,6.9L23.2,79z"/>
	<path class="st0" d="M65.6,82.6c3.4,1.5,6.5,2.2,9.2,2.2c2.9,0,5.4-0.9,7.1-2.6l6-6c1.2-1.2,1.8-2.8,1.8-4.5s-0.7-3.3-1.8-4.5
		l-7.4-7.4c-2.5-2.5-6.5-2.5-8.9,0l-2.8,2.8C61.7,59,56,53.3,52.3,46.4l2.8-2.8c1.2-1.2,1.8-2.8,1.8-4.5s-0.7-3.3-1.8-4.5l-7.4-7.4
		c-1.2-1.2-2.8-1.8-4.5-1.8s-3.3,0.7-4.5,1.8l-6,6c-3.4,3.4-3.5,9.2-0.4,16.3C35,55.7,40,62.6,46.2,68.8C52.4,75,59.3,80,65.6,82.6z
		 M37.3,37.6l6-6l7.4,7.4l-6,6l1,2c4.6,9.8,12.6,17.7,22.3,22.3l2,1l6-6l7.4,7.4l-6,6c-1.3,1.3-5,1-9.4-0.9
		c-5.5-2.4-11.7-6.8-17.4-12.5C45,58.7,40.5,52.5,38.2,46.9C36.3,42.6,35.9,38.9,37.3,37.6z"/>
</g>
</svg>
